<svg width="80" height="79" viewBox="0 0 80 79" fill="none" xmlns="http://www.w3.org/2000/svg">
<g clip-path="url(#clip0_6_21)">
<path d="M57.2204 25.0327L46.6873 35.4244L50.7656 39.448L61.2987 29.0562L57.2204 25.0327Z" fill="#66C05D"/>
<path d="M35.9094 46.0796L25.3762 56.4714L29.4545 60.4949L39.9877 50.1032L35.9094 46.0796Z" fill="#66C05D"/>
<path d="M50.5173 18.4549L39.9842 28.8467L44.0625 32.8702L54.5956 22.4785L50.5173 18.4549Z" fill="#66C05D"/>
<path d="M29.2355 39.4735L18.7023 49.8652L22.7806 53.8888L33.3138 43.497L29.2355 39.4735Z" fill="#66C05D"/>
<path d="M22.7576 25.0324L18.6793 29.0559L29.2124 39.4477L33.2907 35.4241L22.7576 25.0324Z" fill="#66C05D"/>
<path d="M29.454 18.448L25.3757 22.4716L35.9089 32.8633L39.9872 28.8398L29.454 18.448Z" fill="#66C05D"/>
<path d="M50.7592 39.4443L46.6809 43.4678L57.2141 53.8596L61.2924 49.836L50.7592 39.4443Z" fill="#66C05D"/>
<path d="M44.092 46.0574L40.0137 50.081L50.5468 60.4727L54.6251 56.4492L44.092 46.0574Z" fill="#66C05D"/>
<path d="M54.6058 64.5164L50.5394 60.5046L40 70.9026L29.4606 60.5046L25.3942 64.5164L40 78.9262L54.6058 64.5164Z" fill="#EFEFEF"/>
<path d="M18.6722 29.0652L14.6058 25.0533L0 39.4631L14.6058 53.8729L18.6722 49.8611L8.13278 39.4631L18.6722 29.0652Z" fill="#EFEFEF"/>
<path d="M65.3942 25.0533L61.3278 29.0652L71.8672 39.4631L61.3278 49.8611L65.3942 53.8729L80 39.4631L65.3942 25.0533Z" fill="#EFEFEF"/>
<path d="M50.5394 18.4216L54.6058 14.4098L40 0L25.3942 14.4098L29.4606 18.4216L40 8.02362L50.5394 18.4216Z" fill="#EFEFEF"/>
</g>
<defs>
<clipPath id="clip0_6_21">
<rect width="80" height="78.9262" fill="white"/>
</clipPath>
</defs>
</svg>
